{
	"asset":{
		"generator":"Khronos glTF Blender I/O v4.4.55",
		"version":"2.0"
	},
	"scene":0,
	"scenes":[
		{
			"name":"Scene",
			"nodes":[
				11
			]
		}
	],
	"nodes":[
		{
			"name":"Bone.001",
			"rotation":[
				-0.0004528194258455187,
				4.267035436100741e-08,
				0.008752066642045975,
				0.9999616146087646
			],
			"scale":[
				1,
				0.9999998807907104,
				1
			],
			"translation":[
				-1.7128343188232975e-10,
				1.3931641578674316,
				2.3987922759260982e-11
			]
		},
		{
			"name":"Bone.003",
			"rotation":[
				-1.6992468943044514e-07,
				1.6262364965768938e-07,
				-0.0036793421022593975,
				0.9999932050704956
			],
			"scale":[
				1,
				0.9999999403953552,
				1
			],
			"translation":[
				1.862609400049564e-09,
				0.3894902169704437,
				0
			]
		},
		{
			"children":[
				1
			],
			"name":"Bone.002",
			"rotation":[
				-0.0002668829110916704,
				-0.00037343817530199885,
				-0.692389726638794,
				0.7215235829353333
			],
			"scale":[
				0.9999998807907104,
				0.9999999403953552,
				1
			],
			"translation":[
				0.1687750220298767,
				1.1143354177474976,
				-0.000977392541244626
			]
		},
		{
			"name":"Bone.005",
			"rotation":[
				-2.118085262736713e-07,
				1.2377699022181332e-05,
				-0.0036794261541217566,
				0.9999932646751404
			],
			"translation":[
				1.3971538592727484e-08,
				0.3894902169704437,
				-1.2931877790833823e-12
			]
		},
		{
			"children":[
				3
			],
			"name":"Bone.004",
			"rotation":[
				-0.0003724418056663126,
				0.0002483618736732751,
				0.701873779296875,
				0.7123012542724609
			],
			"scale":[
				0.9999999403953552,
				1,
				0.9999999403953552
			],
			"translation":[
				-0.25774869322776794,
				1.1207562685012817,
				-0.001055267290212214
			]
		},
		{
			"name":"Bone.007",
			"rotation":[
				-2.0000706868472662e-08,
				-1.0909784720070093e-07,
				-0.053197287023067474,
				0.9985840320587158
			],
			"scale":[
				0.9999999403953552,
				1,
				1
			],
			"translation":[
				-5.51614309785009e-13,
				0.6178734302520752,
				2.1316282072803006e-14
			]
		},
		{
			"children":[
				5
			],
			"name":"Bone.006",
			"rotation":[
				1.39298881549621e-05,
				-0.00045901667908765376,
				-0.9877554774284363,
				0.15600934624671936
			],
			"scale":[
				0.9999991655349731,
				0.9999999403953552,
				1.0000001192092896
			],
			"translation":[
				0.09113628417253494,
				-0.07528422772884369,
				8.345673268195242e-05
			]
		},
		{
			"name":"Bone.009",
			"rotation":[
				-1.8035154880635673e-07,
				4.881894355435179e-08,
				0.042638108134269714,
				0.9990906119346619
			],
			"translation":[
				7.450029038125194e-09,
				0.6433398127555847,
				0
			]
		},
		{
			"children":[
				7
			],
			"name":"Bone.008",
			"rotation":[
				-0.00014920913963578641,
				0.00043483165791258216,
				0.9896591305732727,
				0.1434383988380432
			],
			"scale":[
				1.000002384185791,
				0.9999999403953552,
				1
			],
			"translation":[
				-0.11141654849052429,
				-0.08725649863481522,
				6.0035366914235055e-05
			]
		},
		{
			"children":[
				0,
				2,
				4,
				6,
				8
			],
			"name":"Bone",
			"rotation":[
				0.0004516216868069023,
				8.303813956445083e-05,
				-0.0032275719568133354,
				0.999994695186615
			],
			"scale":[
				0.9999999403953552,
				1,
				1
			],
			"translation":[
				0,
				-0.6706454157829285,
				0
			]
		},
		{
			"mesh":0,
			"name":"guy",
			"skin":0
		},
		{
			"children":[
				10,
				9
			],
			"name":"Armature"
		}
	],
	"animations":[
		{
			"channels":[
				{
					"sampler":0,
					"target":{
						"node":9,
						"path":"translation"
					}
				},
				{
					"sampler":1,
					"target":{
						"node":9,
						"path":"rotation"
					}
				},
				{
					"sampler":2,
					"target":{
						"node":9,
						"path":"scale"
					}
				},
				{
					"sampler":3,
					"target":{
						"node":0,
						"path":"translation"
					}
				},
				{
					"sampler":4,
					"target":{
						"node":0,
						"path":"rotation"
					}
				},
				{
					"sampler":5,
					"target":{
						"node":0,
						"path":"scale"
					}
				},
				{
					"sampler":6,
					"target":{
						"node":2,
						"path":"translation"
					}
				},
				{
					"sampler":7,
					"target":{
						"node":2,
						"path":"rotation"
					}
				},
				{
					"sampler":8,
					"target":{
						"node":2,
						"path":"scale"
					}
				},
				{
					"sampler":9,
					"target":{
						"node":1,
						"path":"translation"
					}
				},
				{
					"sampler":10,
					"target":{
						"node":1,
						"path":"rotation"
					}
				},
				{
					"sampler":11,
					"target":{
						"node":1,
						"path":"scale"
					}
				},
				{
					"sampler":12,
					"target":{
						"node":4,
						"path":"translation"
					}
				},
				{
					"sampler":13,
					"target":{
						"node":4,
						"path":"rotation"
					}
				},
				{
					"sampler":14,
					"target":{
						"node":4,
						"path":"scale"
					}
				},
				{
					"sampler":15,
					"target":{
						"node":3,
						"path":"translation"
					}
				},
				{
					"sampler":16,
					"target":{
						"node":3,
						"path":"rotation"
					}
				},
				{
					"sampler":17,
					"target":{
						"node":3,
						"path":"scale"
					}
				},
				{
					"sampler":18,
					"target":{
						"node":6,
						"path":"translation"
					}
				},
				{
					"sampler":19,
					"target":{
						"node":6,
						"path":"rotation"
					}
				},
				{
					"sampler":20,
					"target":{
						"node":6,
						"path":"scale"
					}
				},
				{
					"sampler":21,
					"target":{
						"node":5,
						"path":"translation"
					}
				},
				{
					"sampler":22,
					"target":{
						"node":5,
						"path":"rotation"
					}
				},
				{
					"sampler":23,
					"target":{
						"node":5,
						"path":"scale"
					}
				},
				{
					"sampler":24,
					"target":{
						"node":8,
						"path":"translation"
					}
				},
				{
					"sampler":25,
					"target":{
						"node":8,
						"path":"rotation"
					}
				},
				{
					"sampler":26,
					"target":{
						"node":8,
						"path":"scale"
					}
				},
				{
					"sampler":27,
					"target":{
						"node":7,
						"path":"translation"
					}
				},
				{
					"sampler":28,
					"target":{
						"node":7,
						"path":"rotation"
					}
				},
				{
					"sampler":29,
					"target":{
						"node":7,
						"path":"scale"
					}
				}
			],
			"name":"ArmatureAction",
			"samplers":[
				{
					"input":7,
					"interpolation":"STEP",
					"output":8
				},
				{
					"input":7,
					"interpolation":"STEP",
					"output":9
				},
				{
					"input":7,
					"interpolation":"STEP",
					"output":10
				},
				{
					"input":7,
					"interpolation":"STEP",
					"output":11
				},
				{
					"input":7,
					"interpolation":"STEP",
					"output":12
				},
				{
					"input":7,
					"interpolation":"STEP",
					"output":13
				},
				{
					"input":7,
					"interpolation":"STEP",
					"output":14
				},
				{
					"input":7,
					"interpolation":"STEP",
					"output":15
				},
				{
					"input":7,
					"interpolation":"STEP",
					"output":16
				},
				{
					"input":7,
					"interpolation":"STEP",
					"output":17
				},
				{
					"input":7,
					"interpolation":"STEP",
					"output":18
				},
				{
					"input":7,
					"interpolation":"STEP",
					"output":19
				},
				{
					"input":7,
					"interpolation":"STEP",
					"output":20
				},
				{
					"input":21,
					"interpolation":"LINEAR",
					"output":22
				},
				{
					"input":7,
					"interpolation":"STEP",
					"output":23
				},
				{
					"input":7,
					"interpolation":"STEP",
					"output":24
				},
				{
					"input":21,
					"interpolation":"LINEAR",
					"output":25
				},
				{
					"input":7,
					"interpolation":"STEP",
					"output":26
				},
				{
					"input":7,
					"interpolation":"STEP",
					"output":27
				},
				{
					"input":7,
					"interpolation":"STEP",
					"output":28
				},
				{
					"input":7,
					"interpolation":"STEP",
					"output":29
				},
				{
					"input":7,
					"interpolation":"STEP",
					"output":30
				},
				{
					"input":7,
					"interpolation":"STEP",
					"output":31
				},
				{
					"input":7,
					"interpolation":"STEP",
					"output":32
				},
				{
					"input":7,
					"interpolation":"STEP",
					"output":33
				},
				{
					"input":7,
					"interpolation":"STEP",
					"output":34
				},
				{
					"input":7,
					"interpolation":"STEP",
					"output":35
				},
				{
					"input":7,
					"interpolation":"STEP",
					"output":36
				},
				{
					"input":7,
					"interpolation":"STEP",
					"output":37
				},
				{
					"input":7,
					"interpolation":"STEP",
					"output":38
				}
			]
		}
	],
	"materials":[
		{
			"doubleSided":true,
			"name":"Material",
			"pbrMetallicRoughness":{
				"baseColorFactor":[
					0.800000011920929,
					0.800000011920929,
					0.800000011920929,
					1
				],
				"metallicFactor":0,
				"roughnessFactor":0.5
			}
		}
	],
	"meshes":[
		{
			"name":"Mesh",
			"primitives":[
				{
					"attributes":{
						"POSITION":0,
						"NORMAL":1,
						"TEXCOORD_0":2,
						"JOINTS_0":3,
						"WEIGHTS_0":4
					},
					"indices":5,
					"material":0
				}
			]
		}
	],
	"skins":[
		{
			"inverseBindMatrices":6,
			"joints":[
				9,
				0,
				2,
				1,
				4,
				3,
				6,
				5,
				8,
				7
			],
			"name":"Armature"
		}
	],
	"accessors":[
		{
			"bufferView":0,
			"componentType":5126,
			"count":1073,
			"max":[
				1.0340876579284668,
				1.7813700437545776,
				0.4224652051925659
			],
			"min":[
				-1.108155608177185,
				-2.1671254634857178,
				-0.4224652051925659
			],
			"type":"VEC3"
		},
		{
			"bufferView":1,
			"componentType":5126,
			"count":1073,
			"type":"VEC3"
		},
		{
			"bufferView":2,
			"componentType":5126,
			"count":1073,
			"type":"VEC2"
		},
		{
			"bufferView":3,
			"componentType":5121,
			"count":1073,
			"type":"VEC4"
		},
		{
			"bufferView":4,
			"componentType":5126,
			"count":1073,
			"type":"VEC4"
		},
		{
			"bufferView":5,
			"componentType":5123,
			"count":5568,
			"type":"SCALAR"
		},
		{
			"bufferView":6,
			"componentType":5126,
			"count":10,
			"type":"MAT4"
		},
		{
			"bufferView":7,
			"componentType":5126,
			"count":2,
			"max":[
				0.8333333333333334
			],
			"min":[
				0.041666666666666664
			],
			"type":"SCALAR"
		},
		{
			"bufferView":8,
			"componentType":5126,
			"count":2,
			"type":"VEC3"
		},
		{
			"bufferView":9,
			"componentType":5126,
			"count":2,
			"type":"VEC4"
		},
		{
			"bufferView":10,
			"componentType":5126,
			"count":2,
			"type":"VEC3"
		},
		{
			"bufferView":11,
			"componentType":5126,
			"count":2,
			"type":"VEC3"
		},
		{
			"bufferView":12,
			"componentType":5126,
			"count":2,
			"type":"VEC4"
		},
		{
			"bufferView":13,
			"componentType":5126,
			"count":2,
			"type":"VEC3"
		},
		{
			"bufferView":14,
			"componentType":5126,
			"count":2,
			"type":"VEC3"
		},
		{
			"bufferView":15,
			"componentType":5126,
			"count":2,
			"type":"VEC4"
		},
		{
			"bufferView":16,
			"componentType":5126,
			"count":2,
			"type":"VEC3"
		},
		{
			"bufferView":17,
			"componentType":5126,
			"count":2,
			"type":"VEC3"
		},
		{
			"bufferView":18,
			"componentType":5126,
			"count":2,
			"type":"VEC4"
		},
		{
			"bufferView":19,
			"componentType":5126,
			"count":2,
			"type":"VEC3"
		},
		{
			"bufferView":20,
			"componentType":5126,
			"count":2,
			"type":"VEC3"
		},
		{
			"bufferView":21,
			"componentType":5126,
			"count":20,
			"max":[
				0.8333333333333334
			],
			"min":[
				0.041666666666666664
			],
			"type":"SCALAR"
		},
		{
			"bufferView":22,
			"componentType":5126,
			"count":20,
			"type":"VEC4"
		},
		{
			"bufferView":23,
			"componentType":5126,
			"count":2,
			"type":"VEC3"
		},
		{
			"bufferView":24,
			"componentType":5126,
			"count":2,
			"type":"VEC3"
		},
		{
			"bufferView":25,
			"componentType":5126,
			"count":20,
			"type":"VEC4"
		},
		{
			"bufferView":26,
			"componentType":5126,
			"count":2,
			"type":"VEC3"
		},
		{
			"bufferView":27,
			"componentType":5126,
			"count":2,
			"type":"VEC3"
		},
		{
			"bufferView":28,
			"componentType":5126,
			"count":2,
			"type":"VEC4"
		},
		{
			"bufferView":29,
			"componentType":5126,
			"count":2,
			"type":"VEC3"
		},
		{
			"bufferView":30,
			"componentType":5126,
			"count":2,
			"type":"VEC3"
		},
		{
			"bufferView":31,
			"componentType":5126,
			"count":2,
			"type":"VEC4"
		},
		{
			"bufferView":32,
			"componentType":5126,
			"count":2,
			"type":"VEC3"
		},
		{
			"bufferView":33,
			"componentType":5126,
			"count":2,
			"type":"VEC3"
		},
		{
			"bufferView":34,
			"componentType":5126,
			"count":2,
			"type":"VEC4"
		},
		{
			"bufferView":35,
			"componentType":5126,
			"count":2,
			"type":"VEC3"
		},
		{
			"bufferView":36,
			"componentType":5126,
			"count":2,
			"type":"VEC3"
		},
		{
			"bufferView":37,
			"componentType":5126,
			"count":2,
			"type":"VEC4"
		},
		{
			"bufferView":38,
			"componentType":5126,
			"count":2,
			"type":"VEC3"
		}
	],
	"bufferViews":[
		{
			"buffer":0,
			"byteLength":12876,
			"byteOffset":0,
			"target":34962
		},
		{
			"buffer":0,
			"byteLength":12876,
			"byteOffset":12876,
			"target":34962
		},
		{
			"buffer":0,
			"byteLength":8584,
			"byteOffset":25752,
			"target":34962
		},
		{
			"buffer":0,
			"byteLength":4292,
			"byteOffset":34336,
			"target":34962
		},
		{
			"buffer":0,
			"byteLength":17168,
			"byteOffset":38628,
			"target":34962
		},
		{
			"buffer":0,
			"byteLength":11136,
			"byteOffset":55796,
			"target":34963
		},
		{
			"buffer":0,
			"byteLength":640,
			"byteOffset":66932
		},
		{
			"buffer":0,
			"byteLength":8,
			"byteOffset":67572
		},
		{
			"buffer":0,
			"byteLength":24,
			"byteOffset":67580
		},
		{
			"buffer":0,
			"byteLength":32,
			"byteOffset":67604
		},
		{
			"buffer":0,
			"byteLength":24,
			"byteOffset":67636
		},
		{
			"buffer":0,
			"byteLength":24,
			"byteOffset":67660
		},
		{
			"buffer":0,
			"byteLength":32,
			"byteOffset":67684
		},
		{
			"buffer":0,
			"byteLength":24,
			"byteOffset":67716
		},
		{
			"buffer":0,
			"byteLength":24,
			"byteOffset":67740
		},
		{
			"buffer":0,
			"byteLength":32,
			"byteOffset":67764
		},
		{
			"buffer":0,
			"byteLength":24,
			"byteOffset":67796
		},
		{
			"buffer":0,
			"byteLength":24,
			"byteOffset":67820
		},
		{
			"buffer":0,
			"byteLength":32,
			"byteOffset":67844
		},
		{
			"buffer":0,
			"byteLength":24,
			"byteOffset":67876
		},
		{
			"buffer":0,
			"byteLength":24,
			"byteOffset":67900
		},
		{
			"buffer":0,
			"byteLength":80,
			"byteOffset":67924
		},
		{
			"buffer":0,
			"byteLength":320,
			"byteOffset":68004
		},
		{
			"buffer":0,
			"byteLength":24,
			"byteOffset":68324
		},
		{
			"buffer":0,
			"byteLength":24,
			"byteOffset":68348
		},
		{
			"buffer":0,
			"byteLength":320,
			"byteOffset":68372
		},
		{
			"buffer":0,
			"byteLength":24,
			"byteOffset":68692
		},
		{
			"buffer":0,
			"byteLength":24,
			"byteOffset":68716
		},
		{
			"buffer":0,
			"byteLength":32,
			"byteOffset":68740
		},
		{
			"buffer":0,
			"byteLength":24,
			"byteOffset":68772
		},
		{
			"buffer":0,
			"byteLength":24,
			"byteOffset":68796
		},
		{
			"buffer":0,
			"byteLength":32,
			"byteOffset":68820
		},
		{
			"buffer":0,
			"byteLength":24,
			"byteOffset":68852
		},
		{
			"buffer":0,
			"byteLength":24,
			"byteOffset":68876
		},
		{
			"buffer":0,
			"byteLength":32,
			"byteOffset":68900
		},
		{
			"buffer":0,
			"byteLength":24,
			"byteOffset":68932
		},
		{
			"buffer":0,
			"byteLength":24,
			"byteOffset":68956
		},
		{
			"buffer":0,
			"byteLength":32,
			"byteOffset":68980
		},
		{
			"buffer":0,
			"byteLength":24,
			"byteOffset":69012
		}
	],
	"buffers":[
		{
			"byteLength":69036,
			"uri":"guy.bin"
		}
	]
}
