{
	"asset":{
		"generator":"Khronos glTF Blender I/O v4.4.55",
		"version":"2.0"
	},
	"scene":0,
	"scenes":[
		{
			"name":"Scene",
			"nodes":[
				0
			]
		}
	],
	"nodes":[
		{
			"mesh":0,
			"name":"Cube"
		}
	],
	"materials":[
		{
			"doubleSided":true,
			"name":"Material",
			"pbrMetallicRoughness":{
				"baseColorFactor":[
					0.800000011920929,
					0.800000011920929,
					0.800000011920929,
					1
				],
				"metallicFactor":0,
				"roughnessFactor":0.5
			}
		}
	],
	"meshes":[
		{
			"name":"Mesh",
			"primitives":[
				{
					"attributes":{
						"POSITION":0,
						"NORMAL":1,
						"TEXCOORD_0":2
					},
					"indices":3,
					"material":0
				}
			]
		}
	],
	"accessors":[
		{
			"bufferView":0,
			"componentType":5126,
			"count":1073,
			"max":[
				1.0340876579284668,
				1.7813700437545776,
				0.4224652051925659
			],
			"min":[
				-1.108155608177185,
				-2.1671254634857178,
				-0.4224652051925659
			],
			"type":"VEC3"
		},
		{
			"bufferView":1,
			"componentType":5126,
			"count":1073,
			"type":"VEC3"
		},
		{
			"bufferView":2,
			"componentType":5126,
			"count":1073,
			"type":"VEC2"
		},
		{
			"bufferView":3,
			"componentType":5123,
			"count":5568,
			"type":"SCALAR"
		}
	],
	"bufferViews":[
		{
			"buffer":0,
			"byteLength":12876,
			"byteOffset":0,
			"target":34962
		},
		{
			"buffer":0,
			"byteLength":12876,
			"byteOffset":12876,
			"target":34962
		},
		{
			"buffer":0,
			"byteLength":8584,
			"byteOffset":25752,
			"target":34962
		},
		{
			"buffer":0,
			"byteLength":11136,
			"byteOffset":34336,
			"target":34963
		}
	],
	"buffers":[
		{
			"byteLength":45472,
			"uri":"guy.bin"
		}
	]
}
